<?xml version="1.0" encoding="UTF-8" standalone="no"?>
<!-- Created with Inkscape (http://www.inkscape.org/) -->

<svg
   width="152.26459mm"
   height="177.26459mm"
   viewBox="0 0 152.26459 177.2646"
   version="1.1"
   id="svg5"
   inkscape:version="1.1 (c68e22c387, 2021-05-23)"
   sodipodi:docname="Schneemann_mit_0,5mm_trennstegen.svg"
   xmlns:inkscape="http://www.inkscape.org/namespaces/inkscape"
   xmlns:sodipodi="http://sodipodi.sourceforge.net/DTD/sodipodi-0.dtd"
   xmlns="http://www.w3.org/2000/svg"
   xmlns:svg="http://www.w3.org/2000/svg">
  <sodipodi:namedview
     id="namedview7"
     pagecolor="#ffffff"
     bordercolor="#666666"
     borderopacity="1.0"
     inkscape:pageshadow="2"
     inkscape:pageopacity="0.0"
     inkscape:pagecheckerboard="0"
     inkscape:document-units="mm"
     showgrid="false"
     inkscape:zoom="0.95875068"
     inkscape:cx="135.59312"
     inkscape:cy="305.08453"
     inkscape:window-width="1920"
     inkscape:window-height="1011"
     inkscape:window-x="0"
     inkscape:window-y="0"
     inkscape:window-maximized="1"
     inkscape:current-layer="layer1"
     inkscape:showpageshadow="false"
     fit-margin-left="1"
     fit-margin-top="1"
     fit-margin-bottom="1"
     fit-margin-right="1" />
  <defs
     id="defs2" />
  <g
     inkscape:label="Ebene 1"
     inkscape:groupmode="layer"
     id="layer1"
     transform="translate(-274.98804,-170.67306)">
    <path
       id="path31-3-60"
       style="fill:none;fill-rule:evenodd;stroke:#000000;stroke-width:0.354823;stroke-miterlimit:4;stroke-dashoffset:56.6;stroke-opacity:1"
       d="m 330.505,259.681 h -26.246 c 0,0 0,-0.8 0,-1.666 m 0,-0.5 c 0,-0.854 0,-1.635 0,-1.635 h 26.244 c -1.211,-18.695 -16.726,-33.615 -35.46,-33.617 -0.955,0 -1.909,0.039 -2.859,0.115 m -0.497,0.044 c -2.893,0.274 -5.745,0.903 -8.491,1.874 v 67.001 c 2.77,0.982 5.648,1.616 8.566,1.89 m 0.498,0.043 c 0.925,0.074 1.853,0.111 2.783,0.112 18.751,-0.003 34.274,-14.948 35.462,-33.661 v 0"
       sodipodi:nodetypes="ccccccccc" />
    <path
       id="path31-3-6-80"
       style="fill:none;fill-rule:evenodd;stroke:#000000;stroke-width:0.354823;stroke-miterlimit:4;stroke-dashoffset:56.6;stroke-opacity:1"
       d="M 324.04,227.236 V 200.99 c 0,0 0.801,0 1.667,0 m 0.5,0 c 0.854,0 1.634,0 1.634,0 v 26.244 c 18.695,-1.211 33.614,-16.726 33.617,-35.46 0,-0.956 -0.039,-1.91 -0.115,-2.86 m -0.044,-0.498 c -0.275,-2.892 -0.903,-5.743 -1.875,-8.49 h -67 c -0.983,2.771 -1.617,5.649 -1.891,8.567 m -0.043,0.498 c -0.074,0.925 -0.111,1.853 -0.112,2.783 0.003,18.751 14.948,34.274 33.662,35.462 v 0"
       sodipodi:nodetypes="ccccccccc" />
    <path
       id="path310"
       style="fill:none;fill-rule:evenodd;stroke:#000000;stroke-width:0.313441;stroke-miterlimit:4;stroke-dashoffset:17;stroke-opacity:1"
       d="m 351.6,218.973 c -4.204,4.404 -6.552,10.257 -6.555,16.346 0.006,7 3.106,13.638 8.469,18.136 -7.845,5.518 -12.533,14.495 -12.577,24.087 0.008,5.552 1.575,10.99 4.525,15.693 -10.222,7.841 -16.219,19.987 -16.228,32.87 0.001,4.708 0.803,9.382 2.373,13.822 0,0 1.356,0 3.227,0 m 0.5,0 c 4.188,0 10.408,0 10.408,0 v -21.194 h 3.8 v 21.194 h 42.313 v -21.194 h 3.8 v 21.194 c 0,0 6.499,0 10.679,0 m 0.5,0 c 1.721,0 2.94,0 2.94,0 1.575,-4.439 2.382,-9.113 2.387,-13.822 -0.01,-12.969 -6.086,-25.185 -16.422,-33.017 2.89,-4.671 4.424,-10.054 4.431,-15.546 -0.004,-10.506 -5.572,-20.223 -14.634,-25.538 4.41,-4.434 6.889,-10.431 6.895,-16.685 0,-6.087 -2.343,-11.94 -6.542,-16.346 0,0 -8.337,0 -16.79,0 m -0.499,0 c -8.524,0 -17,0 -17,0"
       sodipodi:nodetypes="ccccccccccccccccccccccc" />
    <g
       id="g1501"
       transform="translate(-79.2285,272.668)">
      <path
         style="fill:none;fill-rule:evenodd;stroke:#000000;stroke-width:0.282719;stroke-miterlimit:4;stroke-dashoffset:9.1;stroke-opacity:1"
         d="m 384.168,35.3403 c 2.561,-10e-5 5.018,1.0174 6.829,2.8287 0.726,0.7261 1.325,1.5559 1.782,2.4547 m 0.215,0.4521 c 0.544,1.2234 0.832,2.5582 0.833,3.9228 0,2.5618 -1.018,5.0186 -2.829,6.83 -1.812,1.8114 -4.269,2.829 -6.83,2.8289 -0.173,0 -0.345,-0.0046 -0.516,-0.0138 m -0.499,-0.0396 c -2.189,-0.2313 -4.245,-1.2051 -5.815,-2.7757 -1.811,-1.8114 -2.829,-4.2681 -2.829,-6.8298 0,-1.9443 0.574,-3.7544 1.563,-5.2698 m 0.284,-0.4123 c 1.757,-2.4099 4.601,-3.9761 7.812,-3.9762 v 0"
         id="path12380" />
      <path
         style="fill:none;fill-rule:evenodd;stroke:#000000;stroke-width:0.2957;stroke-miterlimit:4;stroke-dashoffset:9.1;stroke-opacity:1"
         d="m 384.168,67.3511 c 12.345,-2e-4 22.352,-10.0074 22.352,-22.3519 0,-0.7034 -0.033,-1.4034 -0.099,-2.0978 m -0.052,-0.4978 c -0.581,-4.9724 -2.82,-9.6344 -6.396,-13.2099 -4.191,-4.1919 -9.877,-6.5469 -15.805,-6.5469 -4.669,-10e-5 -9.188,1.4607 -12.945,4.1292 m -0.403,0.2935 c -0.865,0.6437 -1.687,1.3528 -2.458,2.124 -4.191,4.1919 -6.546,9.8774 -6.546,15.8057 0,5.9281 2.355,11.6135 6.547,15.8053 1.898,1.8984 4.103,3.42 6.498,4.5167 m 0.457,0.2031 c 2.768,1.1938 5.777,1.8268 8.85,1.8268 v 0"
         id="path342-3-1-30" />
    </g>
    <g
       id="g1212"
       transform="matrix(1.0711914,0,0,1.0711914,-264.81911,154.44488)">
      <path
         style="fill:none;stroke:#0000ff;stroke-width:0.275987;stroke-opacity:1"
         d="m 518.79968,136.47393 -2.80407,2.80407 m -2.03942,3.45363 8.29712,-8.29711 m 1.99261,-0.57839 -10.8681,10.86811 m -0.55279,1.96699 13.38787,-13.38788 m 1.94965,-0.53543 -15.87296,15.87296 m -0.14197,1.55618 17.57111,-17.57111 m 1.56999,-0.15578 -19.29687,19.29688 m 0.0496,1.36457 20.6118,-20.61181 m 1.31138,0.10284 -21.82035,21.82035 m 0.079,1.33526 23.07664,-23.07665 m 1.09848,0.31574 -23.85938,23.85938 m 0.30051,1.1137 24.67257,-24.67257 m 1.06334,0.35087 -8.86109,8.86109 m -16.52394,16.52395 8.86108,-8.86108 m 17.54042,-16.12622 -8.04311,8.04312 m -17.96065,17.96066 8.04311,-8.04312 m 18.93312,-17.51891 -7.4941,7.4941 m -19.04039,19.04039 7.4941,-7.4941 m 19.97115,-18.55694 -7.20675,7.20676 m -19.77504,19.77504 7.20675,-7.20675 m 20.66595,-19.25174 -7.06067,7.06067 m -20.28872,20.28873 7.06066,-7.06067 m 21.14124,-19.72702 -6.88291,6.8829 m -20.75728,20.75729 6.8829,-6.8829 m 21.57249,-20.15829 -6.77779,6.77779 m -21.0786,21.07861 6.77779,-6.77779 m 21.85735,-20.44314 -6.71077,6.71077 m -21.2889,21.28891 6.71076,-6.71076 m 22.03173,-20.61753 -6.67814,6.67815 m -21.39296,21.39296 6.67814,-6.67814 m 22.10018,-20.68598 -6.67802,6.67803 m -21.39331,21.39331 6.67802,-6.67802 m 22.06495,-20.65073 -6.71041,6.71041 m -21.28998,21.28997 6.71041,-6.7104 m 21.92568,-20.51148 -6.77718,6.7772 m -21.08039,21.08039 6.77719,-6.77719 m 21.67963,-20.26542 -6.88203,6.88203 m -20.75982,20.75982 6.88203,-6.88203 m 21.32177,-19.90757 -7.06409,7.0641 m -20.28745,20.28745 7.06409,-7.06409 m 20.81101,-19.3968 -7.20459,7.2046 m -19.77986,19.77985 7.2046,-7.20459 m 20.26356,-18.84936 -7.4914,7.49141 m -19.04625,19.04625 7.4914,-7.4914 m 19.48826,-18.07405 -8.02376,8.02377 m -17.9837,17.98369 8.02376,-8.02376 m 18.38172,-16.9675 -8.81961,8.81961 m -16.56967,16.56967 8.81961,-8.8196 m 16.92083,-15.50663 -24.67739,24.67739 m 1.1134,0.30082 23.86481,-23.86481 m 0.31076,1.10345 -23.07212,23.07212 m 1.32927,0.0849 21.82779,-21.82779 m 0.10324,1.31098 -20.62005,20.62005 m 1.37037,0.0438 19.29352,-19.29352 m -0.14798,1.56219 -17.58335,17.58335 m 1.4954,-0.0812 16.00676,-16.00676 m -0.51248,1.92669 -13.56758,13.56758 m 1.95601,-0.54179 11.06978,-11.06978 m -0.57987,1.99408 -8.49583,8.49583 m 3.49209,-2.07787 2.92586,-2.92587 m -31.9178,0.004 2.92662,2.92662 m 3.49252,2.0783 -8.49744,-8.49744 m -0.5801,-1.99431 11.07184,11.07184 m 1.95623,0.54202 -13.57008,-13.57009 m -0.51272,-1.92693 16.00974,16.00974 m 1.48854,0.0743 -17.57227,-17.57227 m -0.1555,-1.56971 19.29719,19.29718 m 1.36457,-0.0496 -20.61348,-20.61348 m 0.10182,-1.3124 21.82304,21.82305 m 1.3353,-0.0789 -22.98577,-22.98577 m 0.19237,-1.22184 23.89183,23.89183 m 1.1137,-0.30051 -24.68078,-24.68078 m 0.35161,-1.06261 8.82382,8.82383 m 16.56869,16.56868 -8.81671,-8.81671 m -16.17705,-17.59126 8.02679,8.02679 m 17.98345,17.98345 -8.02069,-8.02069 m -17.54662,-18.96084 7.50047,7.50048 m 19.0393,19.0393 -7.4941,-7.4941 m -18.56099,-19.97522 7.21266,7.21268 m 19.77319,19.77319 -7.20676,-7.20676 m -19.25462,-20.66885 7.01824,7.01825 m 20.33405,20.33405 -7.06061,-7.06061 m -19.72896,-21.14318 6.88295,6.88296 m 20.75912,20.75911 -6.8829,-6.8829 m -20.15938,-21.5736 6.7777,6.77771 m 21.07979,21.07979 -6.77779,-6.77779 m -20.44372,-21.85793 6.71063,6.71063 m 21.28963,21.28963 -6.71077,-6.71077 m -20.61786,-22.03208 6.67792,6.67793 m 21.39353,21.39352 -6.67814,-6.67814 m -20.68632,-22.10053 6.67781,6.67781 m 21.39387,21.39387 -6.67802,-6.67802 m -20.6513,-22.06552 6.71028,6.71029 m 21.29067,21.29067 -6.7104,-6.71041 m -20.51255,-21.92676 6.77711,6.7771 m 21.08155,21.08156 -6.77719,-6.77718 m -20.26728,-21.6815 6.88209,6.88208 m 20.76162,20.76163 -6.88203,-6.88203 m -19.91042,-21.32464 7.022,7.022 m 20.3324,20.33241 -7.06438,-7.06438 m -19.40053,-20.81475 7.21045,7.21045 m 19.77802,19.77803 -7.20455,-7.20456 m -18.85463,-20.26885 7.4977,7.49771 m 19.04519,19.04519 -7.49136,-7.49136 m -18.08051,-19.49472 8.03016,8.03015 m 17.98372,17.98373 -8.0241,-8.0241 m -16.97459,-18.38881 8.82697,8.82696 m 16.56973,16.56974 -8.81989,-8.81989 M 526.264,133.31206 550.94954,157.9976 m 0.30081,-1.1134 -23.89173,-23.89174 m 1.21572,-0.19849 22.98647,22.98647 m 0.0853,-1.32895 -21.83046,-21.83047 m 1.31199,-0.10222 20.62169,20.6217 m 0.0435,-1.37073 -19.2931,-19.2931 m 1.56214,0.14792 17.58334,17.58335 m -0.0815,-1.49572 -16.00646,-16.00647 m 1.92667,0.51246 13.56733,13.56733 m -0.54177,-1.95598 -11.06957,-11.06958 m 1.99406,0.57985 8.49566,8.49566 m -2.07782,-3.49204 -2.9258,-2.92579"
         id="path9824-7" />
      <path
         id="path9941-5"
         style="fill:none;fill-rule:evenodd;stroke:#0000ff;stroke-width:2;stroke-miterlimit:4;stroke-dasharray:none;stroke-opacity:1"
         d="m 531.8921,132.36921 c -11.04809,1.1e-4 -20.00429,8.95632 -20.00441,20.00442 -1.6e-4,11.04828 8.95613,20.00479 20.00441,20.00491 11.04847,1.5e-4 20.00506,-8.95644 20.00489,-20.00491 -1.2e-4,-11.04829 -8.95662,-20.00458 -20.00489,-20.00442 z"
         sodipodi:nodetypes="cccsc" />
      <path
         id="path9941-3-9"
         style="fill:none;fill-rule:evenodd;stroke:#0000ff;stroke-width:2;stroke-miterlimit:4;stroke-dasharray:none;stroke-opacity:1"
         d="m 531.89223,143.32414 c -4.99795,5e-5 -9.04957,4.05168 -9.04962,9.04962 -7e-5,4.99803 4.05159,9.04979 9.04962,9.04984 4.99812,7e-5 9.04992,-4.05172 9.04984,-9.04984 -5e-5,-4.99803 -4.05181,-9.04969 -9.04984,-9.04962 z"
         sodipodi:nodetypes="cccsc" />
    </g>
    <path
       id="path46520"
       style="fill:none;stroke:#000000;stroke-width:0.313442;stroke-miterlimit:4;stroke-dashoffset:9.1;stroke-opacity:1"
       d="m 416.313,294.665 -10.905,-80.478 c 0.895,-0.333 -0.248,0.117 0,0 2.543,-1.208 3.895,-3.292 3.751,-5.783 -0.113,-2.011 -0.42,-3.925 -0.608,-5.969 l 0.141,-7.309 c 0.354,-3.26 0.573,-4.453 1.077,-5.876 0.885,-2.494 2.1,-4.271 3.805,-5.564 l 1.429,-1.085 -2.269,-0.312 -2.27,-0.312 -1.003,1.329 c -1.382,2.195 -3.033,9.975 -3.935,12.361 -0.12,-2.575 0.81,-11.21 1.984,-13.481 0.142,-0.259 0.062,-0.372 -0.302,-0.422 -0.641,-0.088 -1.453,1.307 -1.995,3.136 -6.351,21.429 -0.449,1.384 -0.676,-1.642 l -0.134,-1.783 -1.549,-0.125 c -1.323,-0.107 -1.633,-0.049 -2.126,0.397 -0.942,0.854 -1.981,8.93 -2.262,10.92 -0.348,2.461 -0.468,-4.161 -0.446,-7.954 0.01,-1.735 -0.051,-3.257 -0.135,-3.381 -0.085,-0.124 -0.671,-1.254 -1.405,-1.263 0,0 -0.005,0.003 -0.014,0.01 m -0.407,0.288 c -0.419,0.297 -0.998,0.707 -0.998,0.707 l -0.309,3.387 -0.347,9.832 -0.368,-8.418 c -0.435,-2.121 -1.443,-4.314 -2.081,-4.53 -0.216,-0.073 -0.652,-0.105 -0.968,-0.07 -0.51,0.056 -0.593,0.19 -0.729,1.178 -0.084,0.613 -0.264,1.435 -0.399,1.826 l 0.604,9.596 -1.274,-9.951 c -0.452,-1.14 -1.347,-2.245 -1.753,-2.165 -1.619,0.32 -1.566,0.277 -1.3,1.062 0.136,0.402 1.602,7.842 1.588,8.183 -0.014,0.34 -0.662,1.954 -0.662,1.954 -2.795,-4.842 -1.471,-5.754 -5.982,-8.35 -1.656,1.545 -0.53,2.532 0.825,4.089 l 3.83,5.454 -7.025,-5.548 c -1.41,-0.759 -1.513,-0.775 -1.872,-0.28 -0.253,0.348 -0.098,0.526 1.269,1.452 2.76,1.87 5.223,5.469 6.655,9.726 1.074,1.573 1.241,3.989 1.815,5.354 l 1.524,3.531 c -0.013,0.094 1.864,4.26 2.579,5.14 1.371,1.559 3.762,2.038 4.202,2.113 l 10.897,80.42 c 0,0 0.388,-0.051 1.016,-0.134 m 0.496,-0.066 c 2.914,-0.386 9.021,-1.194 9.021,-1.194"
       sodipodi:nodetypes="ccccccscccccccsscccscsscccccssscccssscccccssccccccc" />
    <path
       id="rect2742"
       style="fill:none;stroke:#000000;stroke-width:0.264583;stroke-linecap:round;stroke-linejoin:bevel;stroke-miterlimit:4;stroke-dasharray:none;paint-order:markers fill stroke"
       d="m 426.12033,171.80535 v 175 h -150 v -175 z" />
  </g>
</svg>
