<?xml version="1.0" encoding="UTF-8" standalone="no"?>
<!-- Created with Inkscape (http://www.inkscape.org/) -->

<svg
   width="150.26459mm"
   height="175.26459mm"
   viewBox="0 0 150.26459 175.2646"
   version="1.1"
   id="svg5"
   inkscape:version="1.1 (c68e22c387, 2021-05-23)"
   sodipodi:docname="Schneemann.svg"
   xmlns:inkscape="http://www.inkscape.org/namespaces/inkscape"
   xmlns:sodipodi="http://sodipodi.sourceforge.net/DTD/sodipodi-0.dtd"
   xmlns="http://www.w3.org/2000/svg"
   xmlns:svg="http://www.w3.org/2000/svg">
  <sodipodi:namedview
     id="namedview7"
     pagecolor="#ffffff"
     bordercolor="#666666"
     borderopacity="1.0"
     inkscape:pageshadow="2"
     inkscape:pageopacity="0.0"
     inkscape:pagecheckerboard="0"
     inkscape:document-units="mm"
     showgrid="false"
     inkscape:zoom="0.95875068"
     inkscape:cx="196.08852"
     inkscape:cy="300.91243"
     inkscape:window-width="1920"
     inkscape:window-height="1011"
     inkscape:window-x="0"
     inkscape:window-y="0"
     inkscape:window-maximized="1"
     inkscape:current-layer="layer1"
     inkscape:showpageshadow="false" />
  <defs
     id="defs2" />
  <g
     inkscape:label="Ebene 1"
     inkscape:groupmode="layer"
     id="layer1"
     transform="translate(-275.98804,-171.67306)">
    <path
       id="path31-3-6"
       style="fill:none;fill-rule:evenodd;stroke:#000000;stroke-width:0.354823;stroke-miterlimit:4;stroke-dasharray:none;stroke-opacity:1"
       d="m 330.50517,259.68061 h -26.24655 v -3.80101 h 26.24471 c -1.21123,-18.69499 -16.72646,-33.61443 -35.46066,-33.61696 -4.03588,3.1e-4 -8.04222,0.68804 -11.84715,2.0337 v 67.00021 c 3.80421,1.34983 7.81057,2.0417 11.84715,2.04594 18.75128,-0.003 34.27407,-14.94831 35.4625,-33.66188 z"
       sodipodi:nodetypes="ccccccccc" />
    <path
       id="path31-3-6-8"
       style="fill:none;fill-rule:evenodd;stroke:#000000;stroke-width:0.354823;stroke-miterlimit:4;stroke-dasharray:none;stroke-opacity:1"
       d="m 324.04004,227.23613 v -26.24654 h 3.801 v 26.2447 c 18.69499,-1.21123 33.61443,-16.72645 33.61697,-35.46065 -3.1e-4,-4.03588 -0.68805,-8.04222 -2.03371,-11.84715 h -67.0002 c -1.34983,3.80421 -2.04171,7.81057 -2.04595,11.84715 0.003,18.75128 14.94831,34.27406 33.66189,35.46249 z"
       sodipodi:nodetypes="ccccccccc" />
    <path
       id="path31"
       style="fill:none;fill-rule:evenodd;stroke:#000000;stroke-width:0.313441;stroke-miterlimit:4;stroke-dasharray:none;stroke-opacity:1"
       d="m 351.6002,218.97275 c -4.20438,4.40402 -6.55195,10.25758 -6.55567,16.34627 0.006,6.9996 3.10621,13.63845 8.46976,18.13587 -7.84572,5.51845 -12.53298,14.49489 -12.57753,24.0869 0.008,5.5519 1.57539,10.98991 4.52479,15.6936 -10.22159,7.84064 -16.21815,19.98692 -16.22743,32.86932 4.4e-4,4.70861 0.80291,9.38275 2.37298,13.82188 h 14.13485 v -21.19405 h 3.79984 v 21.19405 h 42.31293 v -21.19405 h 3.80029 v 21.19405 h 14.1189 c 1.57482,-4.43831 2.38201,-9.11247 2.38693,-13.82188 -0.01,-12.96827 -6.08608,-25.18515 -16.42225,-33.01712 2.89022,-4.67073 4.42464,-10.05317 4.43177,-15.5458 -0.004,-10.50552 -5.57213,-20.22298 -14.63425,-25.53748 4.41034,-4.43382 6.88888,-10.4315 6.89518,-16.68529 -2.4e-4,-6.0869 -2.34309,-11.94023 -6.54275,-16.34627 z"
       sodipodi:nodetypes="ccccccccccccccccccccccc" />
    <g
       id="g1501"
       transform="translate(-79.228474,272.66757)">
      <path
         style="fill:none;fill-rule:evenodd;stroke:#000000;stroke-width:0.282719;stroke-miterlimit:4;stroke-dasharray:none;stroke-opacity:1"
         d="m 384.16761,35.340262 a 9.6585879,9.6585842 0 0 1 9.6589,9.658382 9.6585879,9.6585842 0 0 1 -9.6589,9.658899 9.6585879,9.6585842 0 0 1 -9.65838,-9.658899 9.6585879,9.6585842 0 0 1 9.65838,-9.658382 z"
         id="path1238" />
      <path
         style="fill:none;fill-rule:evenodd;stroke:#000000;stroke-width:0.2957;stroke-miterlimit:4;stroke-dasharray:none;stroke-opacity:1"
         d="M 384.16814,67.351052 A 22.352118,22.35212 0 0 0 406.52002,44.999175 22.352118,22.35212 0 0 0 384.16814,22.646752 22.352118,22.35212 0 0 0 361.81571,44.999175 22.352118,22.35212 0 0 0 384.16814,67.351052 Z"
         id="path342-3-1-3" />
    </g>
    <g
       id="g1212"
       transform="matrix(1.0711914,0,0,1.0711914,-264.81911,154.44488)">
      <path
         style="fill:none;stroke:#0000ff;stroke-width:0.275987;stroke-opacity:1"
         d="m 518.79968,136.47393 -2.80407,2.80407 m -2.03942,3.45363 8.29712,-8.29711 m 1.99261,-0.57839 -10.8681,10.86811 m -0.55279,1.96699 13.38787,-13.38788 m 1.94965,-0.53543 -15.87296,15.87296 m -0.14197,1.55618 17.57111,-17.57111 m 1.56999,-0.15578 -19.29687,19.29688 m 0.0496,1.36457 20.6118,-20.61181 m 1.31138,0.10284 -21.82035,21.82035 m 0.079,1.33526 23.07664,-23.07665 m 1.09848,0.31574 -23.85938,23.85938 m 0.30051,1.1137 24.67257,-24.67257 m 1.06334,0.35087 -8.86109,8.86109 m -16.52394,16.52395 8.86108,-8.86108 m 17.54042,-16.12622 -8.04311,8.04312 m -17.96065,17.96066 8.04311,-8.04312 m 18.93312,-17.51891 -7.4941,7.4941 m -19.04039,19.04039 7.4941,-7.4941 m 19.97115,-18.55694 -7.20675,7.20676 m -19.77504,19.77504 7.20675,-7.20675 m 20.66595,-19.25174 -7.06067,7.06067 m -20.28872,20.28873 7.06066,-7.06067 m 21.14124,-19.72702 -6.88291,6.8829 m -20.75728,20.75729 6.8829,-6.8829 m 21.57249,-20.15829 -6.77779,6.77779 m -21.0786,21.07861 6.77779,-6.77779 m 21.85735,-20.44314 -6.71077,6.71077 m -21.2889,21.28891 6.71076,-6.71076 m 22.03173,-20.61753 -6.67814,6.67815 m -21.39296,21.39296 6.67814,-6.67814 m 22.10018,-20.68598 -6.67802,6.67803 m -21.39331,21.39331 6.67802,-6.67802 m 22.06495,-20.65073 -6.71041,6.71041 m -21.28998,21.28997 6.71041,-6.7104 m 21.92568,-20.51148 -6.77718,6.7772 m -21.08039,21.08039 6.77719,-6.77719 m 21.67963,-20.26542 -6.88203,6.88203 m -20.75982,20.75982 6.88203,-6.88203 m 21.32177,-19.90757 -7.06409,7.0641 m -20.28745,20.28745 7.06409,-7.06409 m 20.81101,-19.3968 -7.20459,7.2046 m -19.77986,19.77985 7.2046,-7.20459 m 20.26356,-18.84936 -7.4914,7.49141 m -19.04625,19.04625 7.4914,-7.4914 m 19.48826,-18.07405 -8.02376,8.02377 m -17.9837,17.98369 8.02376,-8.02376 m 18.38172,-16.9675 -8.81961,8.81961 m -16.56967,16.56967 8.81961,-8.8196 m 16.92083,-15.50663 -24.67739,24.67739 m 1.1134,0.30082 23.86481,-23.86481 m 0.31076,1.10345 -23.07212,23.07212 m 1.32927,0.0849 21.82779,-21.82779 m 0.10324,1.31098 -20.62005,20.62005 m 1.37037,0.0438 19.29352,-19.29352 m -0.14798,1.56219 -17.58335,17.58335 m 1.4954,-0.0812 16.00676,-16.00676 m -0.51248,1.92669 -13.56758,13.56758 m 1.95601,-0.54179 11.06978,-11.06978 m -0.57987,1.99408 -8.49583,8.49583 m 3.49209,-2.07787 2.92586,-2.92587 m -31.9178,0.004 2.92662,2.92662 m 3.49252,2.0783 -8.49744,-8.49744 m -0.5801,-1.99431 11.07184,11.07184 m 1.95623,0.54202 -13.57008,-13.57009 m -0.51272,-1.92693 16.00974,16.00974 m 1.48854,0.0743 -17.57227,-17.57227 m -0.1555,-1.56971 19.29719,19.29718 m 1.36457,-0.0496 -20.61348,-20.61348 m 0.10182,-1.3124 21.82304,21.82305 m 1.3353,-0.0789 -22.98577,-22.98577 m 0.19237,-1.22184 23.89183,23.89183 m 1.1137,-0.30051 -24.68078,-24.68078 m 0.35161,-1.06261 8.82382,8.82383 m 16.56869,16.56868 -8.81671,-8.81671 m -16.17705,-17.59126 8.02679,8.02679 m 17.98345,17.98345 -8.02069,-8.02069 m -17.54662,-18.96084 7.50047,7.50048 m 19.0393,19.0393 -7.4941,-7.4941 m -18.56099,-19.97522 7.21266,7.21268 m 19.77319,19.77319 -7.20676,-7.20676 m -19.25462,-20.66885 7.01824,7.01825 m 20.33405,20.33405 -7.06061,-7.06061 m -19.72896,-21.14318 6.88295,6.88296 m 20.75912,20.75911 -6.8829,-6.8829 m -20.15938,-21.5736 6.7777,6.77771 m 21.07979,21.07979 -6.77779,-6.77779 m -20.44372,-21.85793 6.71063,6.71063 m 21.28963,21.28963 -6.71077,-6.71077 m -20.61786,-22.03208 6.67792,6.67793 m 21.39353,21.39352 -6.67814,-6.67814 m -20.68632,-22.10053 6.67781,6.67781 m 21.39387,21.39387 -6.67802,-6.67802 m -20.6513,-22.06552 6.71028,6.71029 m 21.29067,21.29067 -6.7104,-6.71041 m -20.51255,-21.92676 6.77711,6.7771 m 21.08155,21.08156 -6.77719,-6.77718 m -20.26728,-21.6815 6.88209,6.88208 m 20.76162,20.76163 -6.88203,-6.88203 m -19.91042,-21.32464 7.022,7.022 m 20.3324,20.33241 -7.06438,-7.06438 m -19.40053,-20.81475 7.21045,7.21045 m 19.77802,19.77803 -7.20455,-7.20456 m -18.85463,-20.26885 7.4977,7.49771 m 19.04519,19.04519 -7.49136,-7.49136 m -18.08051,-19.49472 8.03016,8.03015 m 17.98372,17.98373 -8.0241,-8.0241 m -16.97459,-18.38881 8.82697,8.82696 m 16.56973,16.56974 -8.81989,-8.81989 M 526.264,133.31206 550.94954,157.9976 m 0.30081,-1.1134 -23.89173,-23.89174 m 1.21572,-0.19849 22.98647,22.98647 m 0.0853,-1.32895 -21.83046,-21.83047 m 1.31199,-0.10222 20.62169,20.6217 m 0.0435,-1.37073 -19.2931,-19.2931 m 1.56214,0.14792 17.58334,17.58335 m -0.0815,-1.49572 -16.00646,-16.00647 m 1.92667,0.51246 13.56733,13.56733 m -0.54177,-1.95598 -11.06957,-11.06958 m 1.99406,0.57985 8.49566,8.49566 m -2.07782,-3.49204 -2.9258,-2.92579"
         id="path9824-7" />
      <path
         id="path9941-5"
         style="fill:none;fill-rule:evenodd;stroke:#0000ff;stroke-width:2;stroke-miterlimit:4;stroke-dasharray:none;stroke-opacity:1"
         d="m 531.8921,132.36921 c -11.04809,1.1e-4 -20.00429,8.95632 -20.00441,20.00442 -1.6e-4,11.04828 8.95613,20.00479 20.00441,20.00491 11.04847,1.5e-4 20.00506,-8.95644 20.00489,-20.00491 -1.2e-4,-11.04829 -8.95662,-20.00458 -20.00489,-20.00442 z"
         sodipodi:nodetypes="cccsc" />
      <path
         id="path9941-3-9"
         style="fill:none;fill-rule:evenodd;stroke:#0000ff;stroke-width:2;stroke-miterlimit:4;stroke-dasharray:none;stroke-opacity:1"
         d="m 531.89223,143.32414 c -4.99795,5e-5 -9.04957,4.05168 -9.04962,9.04962 -7e-5,4.99803 4.05159,9.04979 9.04962,9.04984 4.99812,7e-5 9.04992,-4.05172 9.04984,-9.04984 -5e-5,-4.99803 -4.05181,-9.04969 -9.04984,-9.04962 z"
         sodipodi:nodetypes="cccsc" />
    </g>
    <path
       id="path4652"
       style="fill:none;stroke:#000000;stroke-width:0.313442;stroke-miterlimit:4;stroke-dasharray:none;stroke-opacity:1"
       d="m 416.31285,294.66512 -10.90461,-80.47806 c 0.89482,-0.33257 -0.24859,0.1166 -5e-4,8e-5 2.5436,-1.20862 3.89518,-3.29211 3.75101,-5.78352 -0.11319,-2.01056 -0.41927,-3.92428 -0.60726,-5.96876 l 0.14097,-7.30886 c 0.35384,-3.26047 0.57257,-4.45334 1.07676,-5.8755 0.88435,-2.49448 2.09929,-4.27143 3.80456,-5.56495 l 1.42952,-1.08484 -2.26947,-0.31161 -2.26987,-0.31168 -1.00254,1.32892 c -1.3823,2.19438 -3.03333,9.97515 -3.93579,12.36022 -0.1201,-2.57505 0.81077,-11.21001 1.98394,-13.48075 0.1425,-0.25929 0.062,-0.37159 -0.30191,-0.42173 -0.64072,-0.088 -1.45275,1.30685 -1.99493,3.13616 -6.35109,21.42834 -0.44907,1.38334 -0.67596,-1.64205 l -0.13398,-1.78283 -1.54891,-0.12542 c -1.3232,-0.10708 -1.63278,-0.0489 -2.12559,0.39751 -0.94185,0.85334 -1.98162,8.92988 -2.26277,10.91963 -0.3478,2.46095 -0.46741,-4.16128 -0.44527,-7.954 0.0102,-1.73545 -0.051,-3.25705 -0.13534,-3.38121 -0.085,-0.12389 -0.6706,-1.25346 -1.40463,-1.26245 l -1.419,1.00444 -0.30923,3.3868 -0.3468,9.83264 -0.36784,-8.41806 c -0.43588,-2.12105 -1.44349,-4.31393 -2.08135,-4.53007 -0.21652,-0.0734 -0.65228,-0.10511 -0.96848,-0.0704 -0.50955,0.0559 -0.59265,0.19025 -0.72831,1.17833 -0.0842,0.61316 -0.264,1.43463 -0.39962,1.8256 l 0.60443,9.59637 -1.27387,-9.95144 c -0.45229,-1.13923 -1.34753,-2.24429 -1.75329,-2.16416 -1.61919,0.31968 -1.56543,0.27644 -1.29978,1.06146 0.13563,0.40171 1.60177,7.84241 1.58799,8.18265 -0.0138,0.34025 -0.6621,1.95405 -0.6621,1.95405 -2.79501,-4.84119 -1.47108,-5.75366 -5.98172,-8.34916 -1.65591,1.54452 -0.53037,2.5313 0.82427,4.08886 l 3.83045,5.45368 -7.02515,-5.54791 c -1.41016,-0.7593 -1.5132,-0.77485 -1.87211,-0.2804 -0.25281,0.34833 -0.0975,0.52656 1.26935,1.45263 2.76034,1.87015 5.22288,5.46857 6.65483,9.72541 1.07445,1.57289 1.24075,3.98975 1.81508,5.3543 l 1.52411,3.53067 c -0.0131,0.0943 1.86412,4.26052 2.57863,5.14 1.37078,1.55902 3.76246,2.03813 4.20273,2.11282 l 10.8961,80.42064 z"
       sodipodi:nodetypes="ccccccscccccccsscccscsscccccssscccssscccccssccccccc" />
    <path
       id="rect2742"
       style="fill:none;stroke:#000000;stroke-width:0.264583;stroke-linecap:round;stroke-linejoin:bevel;stroke-miterlimit:4;stroke-dasharray:none;paint-order:markers fill stroke"
       d="m 426.12033,171.80535 v 175 h -150 v -175 z" />
  </g>
</svg>
